<mxfile host="app.diagrams.net" modified="2023-11-18T10:40:50.684Z" agent="Mozilla/5.0 (Macintosh; Intel Mac OS X 10_15_7) AppleWebKit/537.36 (KHTML, like Gecko) Chrome/119.0.0.0 Safari/537.36" etag="tBDG1zncWsce_dmJWVeb" version="22.1.3" type="github">
  <diagram name="第 1 页" id="5Xy7R5RzK6usqsYoux-T">
    <mxGraphModel dx="1592" dy="877" grid="1" gridSize="10" guides="1" tooltips="1" connect="1" arrows="1" fold="1" page="1" pageScale="1" pageWidth="1169" pageHeight="827" math="0" shadow="0">
      <root>
        <mxCell id="0" />
        <mxCell id="1" parent="0" />
        <mxCell id="as25lxGhgL_D7r2I0-9d-27" value="" style="rounded=0;whiteSpace=wrap;html=1;fillColor=#b0e3e6;strokeColor=#0e8088;" vertex="1" parent="1">
          <mxGeometry x="307.5" y="150" width="300" height="920" as="geometry" />
        </mxCell>
        <mxCell id="as25lxGhgL_D7r2I0-9d-1" value="&lt;pre style=&quot;background-color:#ffffff;color:#080808;font-family:&#39;JetBrains Mono&#39;,monospace;font-size:10.5pt;&quot;&gt;FilterChainProxy&lt;/pre&gt;" style="rounded=0;whiteSpace=wrap;html=1;fillColor=#b1ddf0;strokeColor=#10739e;" vertex="1" parent="1">
          <mxGeometry x="40" y="600" width="150" height="60" as="geometry" />
        </mxCell>
        <mxCell id="as25lxGhgL_D7r2I0-9d-8" value="" style="rounded=0;whiteSpace=wrap;html=1;dashed=1;dashPattern=8 8;" vertex="1" parent="1">
          <mxGeometry x="340" y="244" width="230" height="340" as="geometry" />
        </mxCell>
        <mxCell id="as25lxGhgL_D7r2I0-9d-10" value="&lt;pre style=&quot;background-color:#ffffff;color:#080808;font-family:&#39;JetBrains Mono&#39;,monospace;font-size:10.5pt;&quot;&gt;&lt;span style=&quot;color:#000000;&quot;&gt;SecurityFilterChain&lt;/span&gt;&lt;/pre&gt;" style="text;html=1;strokeColor=none;fillColor=none;align=center;verticalAlign=middle;whiteSpace=wrap;rounded=0;" vertex="1" parent="1">
          <mxGeometry x="427.5" y="190" width="60" height="30" as="geometry" />
        </mxCell>
        <mxCell id="as25lxGhgL_D7r2I0-9d-18" style="edgeStyle=orthogonalEdgeStyle;rounded=0;orthogonalLoop=1;jettySize=auto;html=1;exitX=0.5;exitY=1;exitDx=0;exitDy=0;entryX=0.5;entryY=0;entryDx=0;entryDy=0;" edge="1" parent="1" source="as25lxGhgL_D7r2I0-9d-13" target="as25lxGhgL_D7r2I0-9d-16">
          <mxGeometry relative="1" as="geometry" />
        </mxCell>
        <mxCell id="as25lxGhgL_D7r2I0-9d-13" value="&lt;pre style=&quot;background-color:#ffffff;color:#080808;font-family:&#39;JetBrains Mono&#39;,monospace;font-size:10.5pt;&quot;&gt;RequestMatcher&lt;/pre&gt;" style="rhombus;whiteSpace=wrap;html=1;fillColor=#f8cecc;strokeColor=#b85450;" vertex="1" parent="1">
          <mxGeometry x="382.5" y="260" width="150" height="80" as="geometry" />
        </mxCell>
        <mxCell id="as25lxGhgL_D7r2I0-9d-19" style="edgeStyle=orthogonalEdgeStyle;rounded=0;orthogonalLoop=1;jettySize=auto;html=1;exitX=0.5;exitY=1;exitDx=0;exitDy=0;entryX=0.5;entryY=0;entryDx=0;entryDy=0;" edge="1" parent="1" source="as25lxGhgL_D7r2I0-9d-16" target="as25lxGhgL_D7r2I0-9d-17">
          <mxGeometry relative="1" as="geometry" />
        </mxCell>
        <mxCell id="as25lxGhgL_D7r2I0-9d-16" value="filter0" style="rounded=0;whiteSpace=wrap;html=1;fillColor=#fff2cc;strokeColor=#d6b656;" vertex="1" parent="1">
          <mxGeometry x="397.5" y="370" width="120" height="60" as="geometry" />
        </mxCell>
        <mxCell id="as25lxGhgL_D7r2I0-9d-17" value="filter1" style="rounded=0;whiteSpace=wrap;html=1;fillColor=#fff2cc;strokeColor=#d6b656;" vertex="1" parent="1">
          <mxGeometry x="397.5" y="470" width="120" height="60" as="geometry" />
        </mxCell>
        <mxCell id="as25lxGhgL_D7r2I0-9d-20" value="" style="rounded=0;whiteSpace=wrap;html=1;dashed=1;dashPattern=8 8;" vertex="1" parent="1">
          <mxGeometry x="340" y="694" width="230" height="340" as="geometry" />
        </mxCell>
        <mxCell id="as25lxGhgL_D7r2I0-9d-21" value="&lt;pre style=&quot;background-color:#ffffff;color:#080808;font-family:&#39;JetBrains Mono&#39;,monospace;font-size:10.5pt;&quot;&gt;&lt;span style=&quot;color:#000000;&quot;&gt;SecurityFilterChain&lt;/span&gt;&lt;/pre&gt;" style="text;html=1;strokeColor=none;fillColor=none;align=center;verticalAlign=middle;whiteSpace=wrap;rounded=0;" vertex="1" parent="1">
          <mxGeometry x="427.5" y="640" width="60" height="30" as="geometry" />
        </mxCell>
        <mxCell id="as25lxGhgL_D7r2I0-9d-22" style="edgeStyle=orthogonalEdgeStyle;rounded=0;orthogonalLoop=1;jettySize=auto;html=1;exitX=0.5;exitY=1;exitDx=0;exitDy=0;entryX=0.5;entryY=0;entryDx=0;entryDy=0;" edge="1" parent="1" source="as25lxGhgL_D7r2I0-9d-23" target="as25lxGhgL_D7r2I0-9d-25">
          <mxGeometry relative="1" as="geometry" />
        </mxCell>
        <mxCell id="as25lxGhgL_D7r2I0-9d-23" value="&lt;pre style=&quot;background-color:#ffffff;color:#080808;font-family:&#39;JetBrains Mono&#39;,monospace;font-size:10.5pt;&quot;&gt;RequestMatcher&lt;/pre&gt;" style="rhombus;whiteSpace=wrap;html=1;fillColor=#f8cecc;strokeColor=#b85450;" vertex="1" parent="1">
          <mxGeometry x="382.5" y="710" width="150" height="80" as="geometry" />
        </mxCell>
        <mxCell id="as25lxGhgL_D7r2I0-9d-24" style="edgeStyle=orthogonalEdgeStyle;rounded=0;orthogonalLoop=1;jettySize=auto;html=1;exitX=0.5;exitY=1;exitDx=0;exitDy=0;entryX=0.5;entryY=0;entryDx=0;entryDy=0;" edge="1" parent="1" source="as25lxGhgL_D7r2I0-9d-25" target="as25lxGhgL_D7r2I0-9d-26">
          <mxGeometry relative="1" as="geometry" />
        </mxCell>
        <mxCell id="as25lxGhgL_D7r2I0-9d-25" value="filter0" style="rounded=0;whiteSpace=wrap;html=1;fillColor=#fff2cc;strokeColor=#d6b656;" vertex="1" parent="1">
          <mxGeometry x="397.5" y="820" width="120" height="60" as="geometry" />
        </mxCell>
        <mxCell id="as25lxGhgL_D7r2I0-9d-26" value="filter1" style="rounded=0;whiteSpace=wrap;html=1;fillColor=#fff2cc;strokeColor=#d6b656;" vertex="1" parent="1">
          <mxGeometry x="397.5" y="920" width="120" height="60" as="geometry" />
        </mxCell>
        <mxCell id="as25lxGhgL_D7r2I0-9d-30" value="/oauth2/authorize&lt;br style=&quot;font-size: 15px;&quot;&gt;&lt;div style=&quot;font-size: 15px;&quot;&gt;&lt;span style=&quot;background-color: initial; font-size: 15px;&quot;&gt;/oauth2/token&lt;/span&gt;&lt;/div&gt;/userinfo&lt;br&gt;..." style="text;html=1;strokeColor=none;fillColor=none;align=left;verticalAlign=middle;whiteSpace=wrap;rounded=0;fontSize=15;" vertex="1" parent="1">
          <mxGeometry x="170" y="255.5" width="170" height="89" as="geometry" />
        </mxCell>
        <mxCell id="as25lxGhgL_D7r2I0-9d-31" value="any" style="text;html=1;strokeColor=none;fillColor=none;align=center;verticalAlign=middle;whiteSpace=wrap;rounded=0;fontSize=15;" vertex="1" parent="1">
          <mxGeometry x="180" y="735" width="60" height="30" as="geometry" />
        </mxCell>
      </root>
    </mxGraphModel>
  </diagram>
</mxfile>
